<svg width="169" height="24" viewBox="0 0 169 24" fill="none" xmlns="http://www.w3.org/2000/svg">
<path d="M125.233 4.8L130.667 19.2H127.9L126.633 15.6333H120.967L119.733 19.2H117L122.433 4.8H125.233ZM123.733 7.46667L121.6 13.5333H125.933L123.8 7.46667H123.733Z" fill="#737373"/>
<path d="M131.867 8.8667H140.1V9.83337L134.7 17.2667H140.133V19.2H131.467V18.0334L136.8 10.8H131.833V8.8667H131.867Z" fill="#737373"/>
<path d="M150.5 8.8667V19.2H148.033V17.8334H148C147.667 18.3 147.233 18.6667 146.7 18.9334C146.167 19.2 145.567 19.3334 144.9 19.3334C143.7 19.3334 142.8 19 142.167 18.3C141.533 17.6334 141.233 16.5667 141.233 15.1334V8.8667H143.7V14.8667C143.7 15.7334 143.867 16.4 144.233 16.8334C144.567 17.2667 145.1 17.5 145.8 17.5C146.5 17.5 147.033 17.2667 147.467 16.7667C147.867 16.2667 148.1 15.6334 148.1 14.8667V8.90003H150.567L150.5 8.8667Z" fill="#737373"/>
<path d="M157.8 8.70003C158 8.70003 158.167 8.70003 158.333 8.73336C158.5 8.73336 158.633 8.80003 158.733 8.83336V11.3C158.6 11.2 158.433 11.1334 158.167 11.0334C157.933 10.9334 157.633 10.9 157.267 10.9C156.667 10.9 156.167 11.1667 155.767 11.6667C155.367 12.1667 155.133 12.9334 155.133 14V19.2H152.7V8.86669H155.133V10.5H155.167C155.4 9.93336 155.733 9.50003 156.167 9.16669C156.6 8.83336 157.167 8.70003 157.8 8.70003Z" fill="#737373"/>
<path d="M167.467 16.6V18.6C167.067 18.8667 166.533 19.0667 165.9 19.2334C165.267 19.4 164.567 19.4667 163.833 19.4667C162.267 19.4667 161.033 19 160.167 18.0667C159.3 17.1334 158.867 15.8334 158.867 14.1667C158.867 12.5 159.333 11.2334 160.267 10.2C161.2 9.16669 162.4 8.63336 163.833 8.63336C165.267 8.63336 166.367 9.0667 167.167 9.93336C167.967 10.8 168.367 12 168.367 13.5667V14.7334H161.3C161.4 15.7667 161.733 16.5 162.3 16.9C162.867 17.3 163.567 17.5334 164.467 17.5334C165.367 17.5334 165.6 17.4334 166.133 17.2667C166.667 17.1 167.133 16.8667 167.533 16.5667L167.467 16.6ZM165.9 13C165.9 12.2 165.7 11.6 165.333 11.1667C164.967 10.7334 164.433 10.5334 163.767 10.5334C163.1 10.5334 162.667 10.7334 162.2 11.1667C161.733 11.6 161.433 12.2 161.267 13H165.9Z" fill="#737373"/>
<path d="M46.7667 4.80001V19.2H44.2667V7.9H44.2333L39.7667 19.2H38.1L33.5333 7.9V19.2H31.2333V4.80001H34.8333L38.9667 15.4667H39.0333L43.4 4.80001H46.8333H46.7667ZM48.8667 5.9C48.8667 5.5 49 5.16667 49.3 4.9C49.6 4.63334 49.9333 4.50001 50.3333 4.50001C50.7333 4.50001 51.1333 4.63334 51.4 4.93334C51.6667 5.20001 51.8333 5.53334 51.8333 5.93334C51.8333 6.33334 51.7 6.66667 51.4 6.93334C51.1 7.20001 50.7667 7.33334 50.3333 7.33334C49.9 7.33334 49.5667 7.20001 49.3 6.93334C49 6.66667 48.8667 6.33334 48.8667 5.93334V5.9ZM51.5667 8.86667V19.2H49.1333V8.86667H51.5667ZM58.9333 17.4333C59.3 17.4333 59.7 17.3333 60.1333 17.1667C60.5667 17 60.9667 16.7667 61.3333 16.5V18.7667C60.9333 19 60.5 19.1667 60 19.2667C59.5 19.3667 58.9667 19.4333 58.3667 19.4333C56.8333 19.4333 55.6 18.9667 54.6667 18C53.7 17.0333 53.2333 15.8 53.2333 14.3333C53.2333 12.8667 53.7333 11.3 54.7 10.2333C55.6667 9.16667 57.0333 8.63334 58.8333 8.63334C60.6333 8.63334 59.7333 8.70001 60.2 8.80001C60.6667 8.93334 61.0333 9.06667 61.3 9.2V11.5333C60.9333 11.2667 60.5333 11.0333 60.1667 10.9C59.7667 10.7333 59.3667 10.6667 58.9667 10.6667C58 10.6667 57.2333 10.9667 56.6333 11.6C56.0333 12.2333 55.7333 13.0667 55.7333 14.1333C55.7333 15.2 56 16 56.5667 16.5667C57.1333 17.1333 57.9 17.4333 58.8667 17.4333H58.9333ZM68.2333 8.7C68.4333 8.7 68.6 8.7 68.7667 8.73334C68.9333 8.76667 69.0667 8.80001 69.1667 8.83334V11.3C69.0333 11.2 68.8667 11.1333 68.6 11.0333C68.3667 10.9333 68.0667 10.9 67.7 10.9C67.1 10.9 66.6 11.1667 66.2 11.6667C65.8 12.1667 65.5667 12.9333 65.5667 14V19.2H63.1333V8.86667H65.5667V10.5H65.6C65.8333 9.93334 66.1667 9.50001 66.6 9.16667C67.0333 8.83334 67.6 8.7 68.2333 8.7ZM69.3 14.2C69.3 12.5 69.7667 11.1333 70.7333 10.1333C71.7 9.13334 73.0333 8.63334 74.7667 8.63334C76.5 8.63334 77.6333 9.1 78.5333 10.0667C79.4333 11.0333 79.9 12.3333 79.9 13.9667C79.9 15.6 79.4333 16.9667 78.4667 17.9667C77.5 18.9667 76.2 19.4667 74.5333 19.4667C72.8667 19.4667 71.6667 19 70.7333 18.0667C69.8 17.1333 69.3333 15.8333 69.3333 14.2H69.3ZM71.8333 14.1C71.8333 15.1667 72.0667 16 72.5667 16.5667C73.0667 17.1333 73.7667 17.4333 74.6667 17.4333C75.5667 17.4333 76.2333 17.1333 76.7 16.5667C77.1667 16 77.4 15.1667 77.4 14.0333C77.4 12.9 77.1667 12.1 76.6667 11.5333C76.2 10.9667 75.5333 10.7 74.6667 10.7C73.8 10.7 73.1 11 72.6 11.6C72.1 12.2 71.8667 13.0333 71.8667 14.1333L71.8333 14.1ZM83.5 11.6C83.5 11.9333 83.6 12.2333 83.8333 12.4333C84.0667 12.6333 84.5333 12.8667 85.3 13.1667C86.2667 13.5667 86.9667 14 87.3333 14.4667C87.7333 14.9667 87.9333 15.5333 87.9333 16.2333C87.9333 16.9333 87.5667 18 86.8 18.5667C86.0667 19.1667 85.0333 19.4667 83.7667 19.4667C82.5 19.4667 82.8667 19.4 82.3333 19.3C81.8 19.2 81.3667 19.0667 81 18.9V16.5C81.4333 16.8 81.9333 17.0667 82.4333 17.2333C82.9333 17.4 83.4 17.5 83.8333 17.5C84.2667 17.5 84.8 17.4333 85.0333 17.2667C85.2667 17.1 85.4333 16.8667 85.4333 16.5C85.4333 16.1333 85.3 15.8667 85.0333 15.6667C84.7667 15.4667 84.2333 15.1667 83.5 14.8667C82.6 14.5 81.9667 14.0667 81.6 13.6C81.2333 13.1333 81.0333 12.5333 81.0333 11.8C81.0333 11.0667 81.4 10.1 82.1333 9.50001C82.8667 8.90001 83.8333 8.60001 85 8.60001C86.1667 8.60001 85.7667 8.63334 86.2 8.73334C86.6333 8.8 87.0333 8.93334 87.3333 9.03334V11.3333C87 11.1333 86.6333 10.9333 86.2 10.7667C85.7667 10.6 85.3333 10.5333 84.9333 10.5333C84.5333 10.5333 84.1 10.6333 83.8667 10.8C83.6 10.9667 83.4667 11.2333 83.4667 11.5333L83.5 11.6ZM88.9667 14.2C88.9667 12.5 89.4333 11.1333 90.4 10.1333C91.3667 9.13334 92.7 8.63334 94.4333 8.63334C96.1667 8.63334 97.3 9.1 98.2 10.0667C99.1 11.0333 99.5667 12.3333 99.5667 13.9667C99.5667 15.6 99.1 16.9667 98.1333 17.9667C97.1667 18.9667 95.8667 19.4667 94.2 19.4667C92.5333 19.4667 91.3333 19 90.4 18.0667C89.4667 17.1333 89 15.8333 89 14.2H88.9667ZM91.5 14.1C91.5 15.1667 91.7333 16 92.2333 16.5667C92.7333 17.1333 93.4333 17.4333 94.3333 17.4333C95.2333 17.4333 95.9 17.1333 96.3667 16.5667C96.8333 16 97.0667 15.1667 97.0667 14.0333C97.0667 12.9 96.8333 12.1 96.3333 11.5333C95.8667 10.9667 95.2 10.7 94.3333 10.7C93.4667 10.7 92.7667 11 92.2667 11.6C91.7667 12.2 91.5333 13.0333 91.5333 14.1333L91.5 14.1ZM107.633 10.8667H104V19.2H101.533V10.8667H99.8V8.86667H101.533V7.43334C101.533 6.33334 101.9 5.46667 102.6 4.76667C103.3 4.06667 104.2 3.73334 105.3 3.73334C106.4 3.73334 105.867 3.73334 106.1 3.76667C106.333 3.76667 106.533 3.83334 106.7 3.9V6.00001C106.633 5.96667 106.467 5.90001 106.267 5.83334C106.067 5.76667 105.833 5.73334 105.567 5.73334C105.067 5.73334 104.667 5.9 104.4 6.2C104.133 6.5 104 7.00001 104 7.60001V8.83334H107.633V6.50001L110.067 5.76667V8.83334H112.533V10.8333H110.067V15.6667C110.067 16.3 110.167 16.7667 110.4 17C110.633 17.2667 111 17.4 111.5 17.4C112 17.4 111.8 17.3667 112 17.3C112.2 17.2333 112.367 17.1667 112.533 17.0667V19.0667C112.367 19.1667 112.133 19.2333 111.767 19.3C111.4 19.3667 111.067 19.4 110.7 19.4C109.667 19.4 108.9 19.1333 108.4 18.5667C107.9 18.0333 107.633 17.2 107.633 16.1V10.8V10.8667Z" fill="#737373"/>
<path d="M11.4 0H0V11.4H11.4V0Z" fill="#F25022"/>
<path d="M24 0H12.6V11.4H24V0Z" fill="#7FBA00"/>
<path d="M11.4 12.6H0V24H11.4V12.6Z" fill="#00A4EF"/>
<path d="M24 12.6H12.6V24H24V12.6Z" fill="#FFB900"/>
<path d="M11.4 0H0V11.4H11.4V0Z" fill="#F25022"/>
<path d="M24 0H12.6V11.4H24V0Z" fill="#7FBA00"/>
<path d="M11.4 12.6H0V24H11.4V12.6Z" fill="#00A4EF"/>
<path d="M24 12.6H12.6V24H24V12.6Z" fill="#FFB900"/>
</svg>
